<?xml version="1.0" encoding="UTF-8" standalone="no"?>
<!DOCTYPE svg PUBLIC "-//W3C//DTD SVG 1.1//EN" "http://www.w3.org/Graphics/SVG/1.1/DTD/svg11.dtd">
<svg version="1.1" viewBox="0.0 0.0 290.0 64.0" width="163" height="36" fill="none" stroke="none" stroke-linecap="square" stroke-miterlimit="10" xmlns:xlink="http://www.w3.org/1999/xlink" xmlns="http://www.w3.org/2000/svg"><clipPath id="p.0"><path d="m0 0l290.0 0l0 64.0l-290.0 0l0 -64.0z" clip-rule="nonzero"/></clipPath><g clip-path="url(#p.0)"><path fill="#000000" fill-opacity="0.0" d="m0 0l290.0 0l0 64.0l-290.0 0z" fill-rule="evenodd"/><path fill="#000000" fill-opacity="0.0" d="m105.88714 -9.665073l258.55118 0l0 92.09448l-258.55118 0z" fill-rule="evenodd"/><path fill="#666666" d="m162.52777 38.70055q0.171875 -0.0625 0.59375 -0.0625q0.90625 0 1.375 0.609375q0.484375 0.59375 0.484375 1.609375q0 1.859375 -0.71875 2.90625q-0.71875 1.046875 -2.15625 1.53125q-2.765625 0.90625 -5.875 0.90625q-2.640625 0 -4.984375 -0.71875q-1.734375 2.8125 -3.84375 5.8125q-2.390625 3.421875 -4.109375 4.6875q-1.703125 1.25 -3.859375 1.25q-2.40625 0 -3.640625 -1.859375q-1.21875 -1.859375 -1.53125 -6.125l-0.296875 -4.375q-1.859375 5.046875 -3.328125 7.6875q-1.46875 2.640625 -2.9375076 3.65625q-1.46875 1.015625 -3.453125 1.015625q-2.453125 0 -3.875 -1.921875q-1.40625 -1.921875 -1.765625 -6.0625q-0.71875 -8.390625 -0.71875 -14.6875l0 -2.109375q0.0625 -1.96875 1.078125 -2.75q1.015625 -0.78125 3.0625 -0.78125q1.5625 0 2.3125 0.6875q0.75 0.6875 0.75 2.3125q0 6.890625 0.84375 17.9375q4.0781326 -8.578125 7.5000076 -17.875q0.65625 -1.8125 1.578125 -2.4375q0.9375 -0.625 2.25 -0.625q1.625 0 2.25 0.65625q0.640625 0.65625 0.640625 2.34375q0 6.890625 0.828125 17.9375q3.609375 -5.34375 5.40625 -8.515625q-0.90625 -1.75 -0.90625 -4.140625q0 -2.046875 0.90625 -3.96875q0.90625 -1.921875 2.453125 -3.109375q1.5625 -1.203125 3.546875 -1.203125q1.734375 0 2.8125 1.234375q1.09375 1.21875 1.09375 3.5625q0 2.703125 -1.453125 6.171875q2.28125 -0.109375 6.0625 -0.890625l1.625 -0.296875zm1.4999542 18.53125q-2.28125 0 -3.21875 -2.390625q-0.921875 -2.40625 -0.921875 -7.6875q0 -7.796875 2.21875 -14.8125q0.546875 -1.75 1.765625 -2.546875q1.234375 -0.8125 3.453125 -0.8125q1.203125 0 1.671875 0.296875q0.484375 0.296875 0.484375 1.140625q0 0.953125 -0.890625 4.3125q-0.609375 2.40625 -0.96875 4.203125q-0.359375 1.796875 -0.59375 4.4375q1.984375 -5.15625 4.4375 -8.390625q2.46875 -3.25 4.828125 -4.625q2.375 -1.375 4.359375 -1.375q3.890625 0 3.890625 3.890625q0 0.78125 -0.53125 3.78125q-0.484375 2.40625 -0.484375 3.0q0 2.09375 1.5 2.09375q1.671875 0 4.3125 -2.625q0.78125 -0.78125 1.625 -0.78125q0.78125 0 1.234375 0.6875q0.453125 0.6875 0.453125 1.828125q0 2.21875 -1.203125 3.484375q-1.6875 1.734375 -3.9375 2.96875q-2.25 1.21875 -4.765625 1.21875q-3.171875 0 -4.828125 -1.609375q-1.65625 -1.625 -1.65625 -4.390625q0 -0.890625 0.1875 -1.796875q0.125 -1.203125 0.125 -1.609375q0 -0.96875 -0.671875 -0.96875q-0.890625 0 -2.359375 2.015625q-1.46875 2.0 -2.921875 5.3125q-1.4375 3.296875 -2.328125 6.953125q-0.671875 2.8125 -1.546875 3.8125q-0.859375 0.984375 -2.71875 0.984375zm30.893723 -32.21875q-2.515625 0 -3.78125 -1.171875q-1.25 -1.171875 -1.25 -3.265625q0 -2.09375 1.640625 -3.5q1.65625 -1.421875 4.109375 -1.421875q2.234375 0 3.609375 1.078125q1.375 1.078125 1.375 3.0625q0 2.40625 -1.5625 3.8125q-1.5625 1.40625 -4.140625 1.40625zm-0.46875 32.21875q-3.90625 0 -5.6875 -2.75q-1.765625 -2.765625 -1.765625 -7.328125q0 -2.703125 0.6875 -6.921875q0.703125 -4.234375 1.78125 -7.890625q0.53125 -1.921875 1.4375 -2.640625q0.90625 -0.71875 2.875 -0.71875q3.0625 0 3.0625 2.03125q0 1.5 -1.140625 6.96875q-1.4375 6.59375 -1.4375 8.9375q0 1.796875 0.484375 2.765625q0.484375 0.953125 1.625 0.953125q1.078125 0 2.6875 -1.5q1.625 -1.5 4.328125 -4.75q0.71875 -0.828125 1.609375 -0.828125q0.78125 0 1.234375 0.71875q0.453125 0.71875 0.453125 1.96875q0 2.40625 -1.140625 3.734375q-5.9375 7.25 -11.09375 7.25zm34.13498 -13.671875q0.78125 0 1.21875 0.71875q0.453125 0.71875 0.453125 1.96875q0 2.40625 -1.125 3.734375q-2.59375 3.171875 -5.65625 5.21875q-3.046875 2.03125 -7.015625 2.03125q-12.234375 0 -12.234375 -17.21875q0 -2.640625 0.171875 -5.34375l-2.328125 0q-1.8125 0 -2.4375 -0.65625q-0.625 -0.65625 -0.625 -2.09375q0 -3.359375 2.703125 -3.359375l3.421875 0q1.015625 -6.609375 3.109375 -12.0625q2.109375 -5.46875 5.078125 -8.703125q2.96875 -3.234375 6.390625 -3.234375q2.515625 0 3.953125 2.21875q1.4375 2.21875 1.4375 5.578125q0 9.296875 -7.796875 16.203125l6.71875 0q0.96875 0 1.375 0.421875q0.421875 0.40625 0.421875 1.546875q0 4.140625 -6.78125 4.140625l-7.3125 0q-0.125 3.0 -0.125 4.6875q0 6.234375 1.46875 8.765625q1.46875 2.515625 4.65625 2.515625q2.578125 0 4.546875 -1.5625q1.984375 -1.5625 4.6875 -4.6875q0.71875 -0.828125 1.625 -0.828125zm-10.5 -33.25q-0.90625 0 -2.015625 2.25q-1.109375 2.25 -2.09375 6.25q-0.984375 3.984375 -1.65625 8.84375q3.546875 -3.0625 5.3125 -6.859375q1.765625 -3.8125 1.765625 -6.9375q0 -3.546875 -1.3125 -3.546875zm34.07997 33.25q0.78125 0 1.21875 0.71875q0.453125 0.71875 0.453125 1.96875q0 2.40625 -1.125 3.734375q-2.234375 2.6875 -6.28125 4.96875q-4.046875 2.28125 -8.671875 2.28125q-6.296875 0 -9.78125 -3.421875q-3.46875 -3.421875 -3.46875 -9.359375q0 -4.140625 1.734375 -7.703125q1.734375 -3.578125 4.828125 -5.671875q3.09375 -2.09375 7.0 -2.09375q3.46875 0 5.5625 2.078125q2.109375 2.0625 2.109375 5.59375q0 4.140625 -2.96875 7.109375q-2.96875 2.96875 -10.046875 4.71875q1.5 2.75 5.703125 2.75q2.6875 0 6.140625 -1.890625q3.453125 -1.890625 5.96875 -4.953125q0.71875 -0.828125 1.625 -0.828125zm-15.125 -8.703125q-2.21875 0 -3.75 2.578125q-1.53125 2.578125 -1.53125 6.234375l0 0.125q3.546875 -0.84375 5.578125 -2.515625q2.046875 -1.6875 2.046875 -3.90625q0 -1.140625 -0.640625 -1.828125q-0.625 -0.6875 -1.703125 -0.6875zm33.483078 8.703125q0.65625 4.921875 1.921875 9.71875q0.234375 0.78125 0.234375 1.609375q0 2.703125 -3.296875 2.703125q-1.859375 0 -2.859375 -1.015625q-0.984375 -1.015625 -1.8125 -3.84375l-0.0625 -0.234375q-2.28125 2.8125 -4.109375 3.78125q-1.828125 0.953125 -4.234375 0.953125q-3.6562347 0 -6.0312347 -2.71875q-2.375 -2.734375 -2.375 -7.125q0 -4.796875 2.046875 -8.875q2.046875 -4.078125 5.578125 -6.6875q3.5468597 -2.609375 7.9218597 -3.15625q1.140625 -11.328125 4.34375 -19.734375q3.21875 -8.40625 8.5625 -8.40625q2.578125 0 4.28125 2.34375q1.71875 2.34375 1.71875 7.078125q0 6.609375 -3.25 15.4375q-3.234375 8.8125 -8.578125 18.171875zm5.15625 -37.140625q-1.734375 0 -3.265625 8.875q-1.53125 8.875 -2.0625 19.328125q6.65625 -14.40625 6.65625 -23.40625q0 -2.28125 -0.390625 -3.53125q-0.390625 -1.265625 -0.9375 -1.265625zm-17.28125 44.75q1.203125 0 2.3125 -0.890625q1.109375 -0.90625 2.859375 -3.484375q-0.609375 -4.375 -0.609375 -9.0625q0 -1.859375 0.0625 -2.875q-3.296875 0.953125 -5.46875 4.375q-2.1562347 3.421875 -2.1562347 7.5625q0 4.375 2.9999847 4.375z" fill-rule="nonzero"/><path fill="#6366f1" d="m282.4026 57.2318q-2.640625 0 -3.984375 -1.4375q-1.34375 -1.4375 -1.34375 -3.78125q0 -2.703125 1.515625 -4.3125q1.53125 -1.625 4.296875 -1.625q2.640625 0 3.984375 1.296875q1.359375 1.28125 1.359375 3.796875q0 2.765625 -1.5625 4.421875q-1.5625 1.640625 -4.265625 1.640625z" fill-rule="nonzero"/><path fill="#2c21b7" fill-opacity="0.8214" d="m56.727036 17.1088l0 20.700071l-27.559057 23.835361l-27.559055 -23.835361l0 -20.700071l27.559055 23.835363z" fill-rule="evenodd"/><path fill="#5562e0" fill-opacity="0.756" d="m85.30971 17.108852l0 20.70007l-27.559052 23.835365l-27.559055 -23.835365l0 -20.70007l27.559055 23.835365z" fill-rule="evenodd"/></g></svg>